<mxfile host="app.diagrams.net" modified="2023-05-10T14:08:55.023Z" agent="Mozilla/5.0 (Windows NT 10.0; Win64; x64) AppleWebKit/537.36 (KHTML, like Gecko) Chrome/113.0.0.0 Safari/537.36" etag="BwoRUueq9_TEIqfaRsG_" version="21.2.9" type="device">
  <diagram name="Page-1" id="FLtlCXVuUn66PgxfRvn6">
    <mxGraphModel dx="2333" dy="1144" grid="1" gridSize="10" guides="1" tooltips="1" connect="1" arrows="1" fold="1" page="1" pageScale="1" pageWidth="850" pageHeight="1100" math="0" shadow="0">
      <root>
        <mxCell id="0" />
        <mxCell id="1" parent="0" />
        <mxCell id="XXXVESIz7Kh7LqJZONIh-1" value="Project&amp;nbsp;" style="rounded=0;whiteSpace=wrap;html=1;" parent="1" vertex="1">
          <mxGeometry x="365" y="595" width="120" height="60" as="geometry" />
        </mxCell>
        <mxCell id="XXXVESIz7Kh7LqJZONIh-56" style="edgeStyle=orthogonalEdgeStyle;rounded=0;orthogonalLoop=1;jettySize=auto;html=1;exitX=0;exitY=1;exitDx=0;exitDy=0;entryX=1;entryY=0.5;entryDx=0;entryDy=0;endArrow=none;endFill=0;" parent="1" source="XXXVESIz7Kh7LqJZONIh-2" target="XXXVESIz7Kh7LqJZONIh-54" edge="1">
          <mxGeometry relative="1" as="geometry">
            <Array as="points">
              <mxPoint x="90" y="505" />
            </Array>
          </mxGeometry>
        </mxCell>
        <mxCell id="XXXVESIz7Kh7LqJZONIh-2" value="Customer" style="rounded=0;whiteSpace=wrap;html=1;" parent="1" vertex="1">
          <mxGeometry x="90" y="385" width="115" height="60" as="geometry" />
        </mxCell>
        <mxCell id="XXXVESIz7Kh7LqJZONIh-4" value="team members" style="rounded=0;whiteSpace=wrap;html=1;" parent="1" vertex="1">
          <mxGeometry x="305" y="395" width="120" height="60" as="geometry" />
        </mxCell>
        <mxCell id="XXXVESIz7Kh7LqJZONIh-5" value="admin" style="whiteSpace=wrap;html=1;" parent="1" vertex="1">
          <mxGeometry x="187" y="145" width="120" height="60" as="geometry" />
        </mxCell>
        <mxCell id="XXXVESIz7Kh7LqJZONIh-152" style="edgeStyle=orthogonalEdgeStyle;rounded=0;orthogonalLoop=1;jettySize=auto;html=1;exitX=0.396;exitY=0.996;exitDx=0;exitDy=0;endArrow=none;endFill=0;entryX=1.135;entryY=-0.178;entryDx=0;entryDy=0;entryPerimeter=0;exitPerimeter=0;" parent="1" source="XXXVESIz7Kh7LqJZONIh-6" edge="1">
          <mxGeometry relative="1" as="geometry">
            <mxPoint x="589.05" y="529.6600000000001" as="targetPoint" />
            <Array as="points">
              <mxPoint x="680" y="530" />
            </Array>
          </mxGeometry>
        </mxCell>
        <mxCell id="fQ24CwOLesMRKxbrumB--1" style="edgeStyle=orthogonalEdgeStyle;rounded=0;orthogonalLoop=1;jettySize=auto;html=1;exitX=0.25;exitY=1;exitDx=0;exitDy=0;entryX=0.5;entryY=0;entryDx=0;entryDy=0;endArrow=none;endFill=0;" parent="1" source="XXXVESIz7Kh7LqJZONIh-6" target="yS_G27v4oWRAwa9dz9_G-14" edge="1">
          <mxGeometry relative="1" as="geometry" />
        </mxCell>
        <mxCell id="XXXVESIz7Kh7LqJZONIh-6" value="Project manager" style="whiteSpace=wrap;html=1;" parent="1" vertex="1">
          <mxGeometry x="632.5" y="85" width="120" height="50" as="geometry" />
        </mxCell>
        <mxCell id="XXXVESIz7Kh7LqJZONIh-14" value="Issues" style="rounded=0;whiteSpace=wrap;html=1;" parent="1" vertex="1">
          <mxGeometry x="223" y="800" width="120" height="60" as="geometry" />
        </mxCell>
        <mxCell id="XXXVESIz7Kh7LqJZONIh-129" style="edgeStyle=orthogonalEdgeStyle;rounded=0;orthogonalLoop=1;jettySize=auto;html=1;exitX=0.5;exitY=0;exitDx=0;exitDy=0;entryX=0.5;entryY=1;entryDx=0;entryDy=0;endArrow=none;endFill=0;" parent="1" source="XXXVESIz7Kh7LqJZONIh-19" target="XXXVESIz7Kh7LqJZONIh-126" edge="1">
          <mxGeometry relative="1" as="geometry" />
        </mxCell>
        <mxCell id="XXXVESIz7Kh7LqJZONIh-131" style="edgeStyle=orthogonalEdgeStyle;rounded=0;orthogonalLoop=1;jettySize=auto;html=1;exitX=0.5;exitY=1;exitDx=0;exitDy=0;entryX=0.5;entryY=0;entryDx=0;entryDy=0;endArrow=none;endFill=0;" parent="1" source="XXXVESIz7Kh7LqJZONIh-19" target="XXXVESIz7Kh7LqJZONIh-128" edge="1">
          <mxGeometry relative="1" as="geometry" />
        </mxCell>
        <mxCell id="XXXVESIz7Kh7LqJZONIh-19" value="sprint" style="rounded=0;whiteSpace=wrap;html=1;" parent="1" vertex="1">
          <mxGeometry x="609.5" y="845" width="120" height="60" as="geometry" />
        </mxCell>
        <mxCell id="XXXVESIz7Kh7LqJZONIh-38" style="edgeStyle=orthogonalEdgeStyle;rounded=0;orthogonalLoop=1;jettySize=auto;html=1;exitX=0.5;exitY=1;exitDx=0;exitDy=0;endArrow=none;endFill=0;" parent="1" source="XXXVESIz7Kh7LqJZONIh-26" edge="1">
          <mxGeometry relative="1" as="geometry">
            <Array as="points">
              <mxPoint x="147" y="120" />
              <mxPoint x="261" y="120" />
            </Array>
            <mxPoint x="146.5" y="115" as="sourcePoint" />
            <mxPoint x="261" y="140" as="targetPoint" />
          </mxGeometry>
        </mxCell>
        <mxCell id="XXXVESIz7Kh7LqJZONIh-39" style="edgeStyle=orthogonalEdgeStyle;rounded=0;orthogonalLoop=1;jettySize=auto;html=1;exitX=0.5;exitY=1;exitDx=0;exitDy=0;endArrow=none;endFill=0;entryX=0.5;entryY=0;entryDx=0;entryDy=0;" parent="1" source="XXXVESIz7Kh7LqJZONIh-30" edge="1">
          <mxGeometry relative="1" as="geometry">
            <mxPoint x="261" y="140" as="targetPoint" />
            <Array as="points">
              <mxPoint x="222" y="120" />
              <mxPoint x="261" y="120" />
            </Array>
          </mxGeometry>
        </mxCell>
        <mxCell id="XXXVESIz7Kh7LqJZONIh-30" value="admin_name" style="ellipse;whiteSpace=wrap;html=1;" parent="1" vertex="1">
          <mxGeometry x="189" y="85" width="65" height="30" as="geometry" />
        </mxCell>
        <mxCell id="XXXVESIz7Kh7LqJZONIh-34" value="" style="edgeStyle=orthogonalEdgeStyle;rounded=0;orthogonalLoop=1;jettySize=auto;html=1;endArrow=none;endFill=0;" parent="1" source="XXXVESIz7Kh7LqJZONIh-31" target="XXXVESIz7Kh7LqJZONIh-30" edge="1">
          <mxGeometry relative="1" as="geometry" />
        </mxCell>
        <mxCell id="XXXVESIz7Kh7LqJZONIh-31" value="fname" style="ellipse;whiteSpace=wrap;html=1;" parent="1" vertex="1">
          <mxGeometry x="154" y="25" width="65" height="30" as="geometry" />
        </mxCell>
        <mxCell id="XXXVESIz7Kh7LqJZONIh-33" style="edgeStyle=orthogonalEdgeStyle;rounded=0;orthogonalLoop=1;jettySize=auto;html=1;exitX=0.5;exitY=1;exitDx=0;exitDy=0;entryX=0.5;entryY=0;entryDx=0;entryDy=0;endArrow=none;endFill=0;" parent="1" source="XXXVESIz7Kh7LqJZONIh-32" target="XXXVESIz7Kh7LqJZONIh-30" edge="1">
          <mxGeometry relative="1" as="geometry" />
        </mxCell>
        <mxCell id="XXXVESIz7Kh7LqJZONIh-32" value="lname" style="ellipse;whiteSpace=wrap;html=1;" parent="1" vertex="1">
          <mxGeometry x="224" y="25" width="65" height="30" as="geometry" />
        </mxCell>
        <mxCell id="XXXVESIz7Kh7LqJZONIh-42" style="edgeStyle=orthogonalEdgeStyle;rounded=0;orthogonalLoop=1;jettySize=auto;html=1;exitX=0.5;exitY=1;exitDx=0;exitDy=0;endArrow=none;endFill=0;" parent="1" source="XXXVESIz7Kh7LqJZONIh-36" edge="1">
          <mxGeometry relative="1" as="geometry">
            <mxPoint x="296" y="120" as="targetPoint" />
            <Array as="points">
              <mxPoint x="297" y="120" />
              <mxPoint x="296" y="120" />
            </Array>
          </mxGeometry>
        </mxCell>
        <mxCell id="XXXVESIz7Kh7LqJZONIh-36" value="email" style="ellipse;whiteSpace=wrap;html=1;" parent="1" vertex="1">
          <mxGeometry x="264" y="85" width="65" height="30" as="geometry" />
        </mxCell>
        <mxCell id="XXXVESIz7Kh7LqJZONIh-41" style="edgeStyle=orthogonalEdgeStyle;rounded=0;orthogonalLoop=1;jettySize=auto;html=1;exitX=0.5;exitY=1;exitDx=0;exitDy=0;endArrow=none;endFill=0;" parent="1" source="XXXVESIz7Kh7LqJZONIh-37" edge="1">
          <mxGeometry relative="1" as="geometry">
            <Array as="points">
              <mxPoint x="261" y="120" />
            </Array>
            <mxPoint x="376.5" y="115" as="sourcePoint" />
            <mxPoint x="261.5" y="145" as="targetPoint" />
          </mxGeometry>
        </mxCell>
        <mxCell id="XXXVESIz7Kh7LqJZONIh-53" style="edgeStyle=orthogonalEdgeStyle;rounded=0;orthogonalLoop=1;jettySize=auto;html=1;exitX=0.5;exitY=0;exitDx=0;exitDy=0;entryX=0.002;entryY=0.67;entryDx=0;entryDy=0;entryPerimeter=0;endArrow=none;endFill=0;" parent="1" source="XXXVESIz7Kh7LqJZONIh-44" target="XXXVESIz7Kh7LqJZONIh-2" edge="1">
          <mxGeometry relative="1" as="geometry">
            <Array as="points">
              <mxPoint x="43" y="425" />
            </Array>
          </mxGeometry>
        </mxCell>
        <mxCell id="XXXVESIz7Kh7LqJZONIh-44" value="cust_id" style="ellipse;whiteSpace=wrap;html=1;" parent="1" vertex="1">
          <mxGeometry x="10" y="445" width="65" height="30" as="geometry" />
        </mxCell>
        <mxCell id="XXXVESIz7Kh7LqJZONIh-48" style="edgeStyle=orthogonalEdgeStyle;rounded=0;orthogonalLoop=1;jettySize=auto;html=1;exitX=0.5;exitY=1;exitDx=0;exitDy=0;entryX=1;entryY=0.5;entryDx=0;entryDy=0;endArrow=none;endFill=0;" parent="1" source="XXXVESIz7Kh7LqJZONIh-45" target="XXXVESIz7Kh7LqJZONIh-47" edge="1">
          <mxGeometry relative="1" as="geometry">
            <Array as="points">
              <mxPoint x="80" y="350" />
              <mxPoint x="80" y="385" />
            </Array>
          </mxGeometry>
        </mxCell>
        <mxCell id="XXXVESIz7Kh7LqJZONIh-45" value="fname" style="ellipse;whiteSpace=wrap;html=1;" parent="1" vertex="1">
          <mxGeometry x="10" y="320" width="65" height="30" as="geometry" />
        </mxCell>
        <mxCell id="XXXVESIz7Kh7LqJZONIh-49" style="edgeStyle=orthogonalEdgeStyle;rounded=0;orthogonalLoop=1;jettySize=auto;html=1;exitX=0.5;exitY=1;exitDx=0;exitDy=0;endArrow=none;endFill=0;entryX=1;entryY=0.5;entryDx=0;entryDy=0;" parent="1" source="XXXVESIz7Kh7LqJZONIh-46" target="XXXVESIz7Kh7LqJZONIh-47" edge="1">
          <mxGeometry relative="1" as="geometry">
            <mxPoint x="40" y="370" as="targetPoint" />
            <Array as="points">
              <mxPoint x="80" y="350" />
              <mxPoint x="80" y="385" />
            </Array>
          </mxGeometry>
        </mxCell>
        <mxCell id="XXXVESIz7Kh7LqJZONIh-46" value="lname" style="ellipse;whiteSpace=wrap;html=1;" parent="1" vertex="1">
          <mxGeometry x="80" y="320" width="65" height="30" as="geometry" />
        </mxCell>
        <mxCell id="XXXVESIz7Kh7LqJZONIh-51" style="edgeStyle=orthogonalEdgeStyle;rounded=0;orthogonalLoop=1;jettySize=auto;html=1;exitX=0.5;exitY=1;exitDx=0;exitDy=0;entryX=0;entryY=0.5;entryDx=0;entryDy=0;endArrow=none;endFill=0;" parent="1" source="XXXVESIz7Kh7LqJZONIh-47" target="XXXVESIz7Kh7LqJZONIh-2" edge="1">
          <mxGeometry relative="1" as="geometry">
            <Array as="points">
              <mxPoint x="43" y="415" />
            </Array>
          </mxGeometry>
        </mxCell>
        <mxCell id="XXXVESIz7Kh7LqJZONIh-47" value="cust_name" style="ellipse;whiteSpace=wrap;html=1;" parent="1" vertex="1">
          <mxGeometry x="10" y="370" width="65" height="30" as="geometry" />
        </mxCell>
        <mxCell id="XXXVESIz7Kh7LqJZONIh-54" value="email" style="ellipse;whiteSpace=wrap;html=1;" parent="1" vertex="1">
          <mxGeometry x="10" y="490" width="65" height="30" as="geometry" />
        </mxCell>
        <mxCell id="XXXVESIz7Kh7LqJZONIh-57" style="edgeStyle=orthogonalEdgeStyle;rounded=0;orthogonalLoop=1;jettySize=auto;html=1;exitX=1;exitY=0.5;exitDx=0;exitDy=0;entryX=0.086;entryY=0.995;entryDx=0;entryDy=0;entryPerimeter=0;endArrow=none;endFill=0;" parent="1" source="XXXVESIz7Kh7LqJZONIh-55" target="XXXVESIz7Kh7LqJZONIh-2" edge="1">
          <mxGeometry relative="1" as="geometry" />
        </mxCell>
        <mxCell id="XXXVESIz7Kh7LqJZONIh-55" value="password" style="ellipse;whiteSpace=wrap;html=1;" parent="1" vertex="1">
          <mxGeometry x="10" y="530" width="65" height="30" as="geometry" />
        </mxCell>
        <mxCell id="XXXVESIz7Kh7LqJZONIh-59" style="edgeStyle=orthogonalEdgeStyle;rounded=0;orthogonalLoop=1;jettySize=auto;html=1;exitX=1;exitY=0.5;exitDx=0;exitDy=0;entryX=0.173;entryY=0.988;entryDx=0;entryDy=0;entryPerimeter=0;endArrow=none;endFill=0;" parent="1" source="XXXVESIz7Kh7LqJZONIh-58" target="XXXVESIz7Kh7LqJZONIh-2" edge="1">
          <mxGeometry relative="1" as="geometry" />
        </mxCell>
        <mxCell id="XXXVESIz7Kh7LqJZONIh-58" value="age" style="ellipse;whiteSpace=wrap;html=1;" parent="1" vertex="1">
          <mxGeometry x="10" y="570" width="65" height="30" as="geometry" />
        </mxCell>
        <mxCell id="XXXVESIz7Kh7LqJZONIh-62" value="member_id" style="ellipse;whiteSpace=wrap;html=1;" parent="1" vertex="1">
          <mxGeometry x="220.5" y="375" width="65" height="30" as="geometry" />
        </mxCell>
        <mxCell id="XXXVESIz7Kh7LqJZONIh-74" style="edgeStyle=orthogonalEdgeStyle;rounded=0;orthogonalLoop=1;jettySize=auto;html=1;exitX=0.5;exitY=1;exitDx=0;exitDy=0;entryX=0.5;entryY=0;entryDx=0;entryDy=0;endArrow=none;endFill=0;" parent="1" source="XXXVESIz7Kh7LqJZONIh-64" target="XXXVESIz7Kh7LqJZONIh-67" edge="1">
          <mxGeometry relative="1" as="geometry">
            <Array as="points">
              <mxPoint x="253.5" y="320" />
              <mxPoint x="253.5" y="340" />
              <mxPoint x="253.5" y="340" />
            </Array>
          </mxGeometry>
        </mxCell>
        <mxCell id="XXXVESIz7Kh7LqJZONIh-64" value="fname" style="ellipse;whiteSpace=wrap;html=1;" parent="1" vertex="1">
          <mxGeometry x="180.5" y="290" width="67.5" height="30" as="geometry" />
        </mxCell>
        <mxCell id="XXXVESIz7Kh7LqJZONIh-77" style="edgeStyle=orthogonalEdgeStyle;rounded=0;orthogonalLoop=1;jettySize=auto;html=1;exitX=1;exitY=0.5;exitDx=0;exitDy=0;entryX=0.057;entryY=0.028;entryDx=0;entryDy=0;entryPerimeter=0;endArrow=none;endFill=0;" parent="1" source="XXXVESIz7Kh7LqJZONIh-67" target="XXXVESIz7Kh7LqJZONIh-4" edge="1">
          <mxGeometry relative="1" as="geometry" />
        </mxCell>
        <mxCell id="XXXVESIz7Kh7LqJZONIh-67" value="mem_name" style="ellipse;whiteSpace=wrap;html=1;" parent="1" vertex="1">
          <mxGeometry x="220.5" y="340" width="65" height="30" as="geometry" />
        </mxCell>
        <mxCell id="XXXVESIz7Kh7LqJZONIh-68" value="email" style="ellipse;whiteSpace=wrap;html=1;" parent="1" vertex="1">
          <mxGeometry x="220.5" y="410" width="65" height="30" as="geometry" />
        </mxCell>
        <mxCell id="XXXVESIz7Kh7LqJZONIh-70" value="password" style="ellipse;whiteSpace=wrap;html=1;" parent="1" vertex="1">
          <mxGeometry x="220.5" y="490" width="65" height="30" as="geometry" />
        </mxCell>
        <mxCell id="XXXVESIz7Kh7LqJZONIh-72" value="age" style="ellipse;whiteSpace=wrap;html=1;" parent="1" vertex="1">
          <mxGeometry x="220.5" y="450" width="65" height="30" as="geometry" />
        </mxCell>
        <mxCell id="XXXVESIz7Kh7LqJZONIh-75" style="edgeStyle=orthogonalEdgeStyle;rounded=0;orthogonalLoop=1;jettySize=auto;html=1;exitX=0.5;exitY=1;exitDx=0;exitDy=0;entryX=0.5;entryY=0;entryDx=0;entryDy=0;endArrow=none;endFill=0;" parent="1" target="XXXVESIz7Kh7LqJZONIh-67" edge="1">
          <mxGeometry relative="1" as="geometry">
            <mxPoint x="280.5" y="320" as="sourcePoint" />
          </mxGeometry>
        </mxCell>
        <mxCell id="XXXVESIz7Kh7LqJZONIh-73" value="lname" style="ellipse;whiteSpace=wrap;html=1;" parent="1" vertex="1">
          <mxGeometry x="262.5" y="290" width="65" height="30" as="geometry" />
        </mxCell>
        <mxCell id="XXXVESIz7Kh7LqJZONIh-81" value="proj_id (FK)" style="ellipse;whiteSpace=wrap;html=1;" parent="1" vertex="1">
          <mxGeometry x="575" y="380" width="65" height="30" as="geometry" />
        </mxCell>
        <mxCell id="XXXVESIz7Kh7LqJZONIh-84" style="edgeStyle=orthogonalEdgeStyle;rounded=0;orthogonalLoop=1;jettySize=auto;html=1;exitX=0;exitY=0.5;exitDx=0;exitDy=0;endArrow=none;endFill=0;entryX=1;entryY=0.25;entryDx=0;entryDy=0;" parent="1" source="XXXVESIz7Kh7LqJZONIh-83" target="XXXVESIz7Kh7LqJZONIh-1" edge="1">
          <mxGeometry relative="1" as="geometry">
            <mxPoint x="490" y="615" as="targetPoint" />
          </mxGeometry>
        </mxCell>
        <mxCell id="XXXVESIz7Kh7LqJZONIh-83" value="proj_id" style="ellipse;whiteSpace=wrap;html=1;" parent="1" vertex="1">
          <mxGeometry x="525" y="595" width="65" height="30" as="geometry" />
        </mxCell>
        <mxCell id="XXXVESIz7Kh7LqJZONIh-85" value="proj_name" style="ellipse;whiteSpace=wrap;html=1;" parent="1" vertex="1">
          <mxGeometry x="525" y="630" width="65" height="30" as="geometry" />
        </mxCell>
        <mxCell id="XXXVESIz7Kh7LqJZONIh-90" value="P_M_id" style="ellipse;whiteSpace=wrap;html=1;" parent="1" vertex="1">
          <mxGeometry x="640" y="40" width="65" height="30" as="geometry" />
        </mxCell>
        <mxCell id="XXXVESIz7Kh7LqJZONIh-92" value="fname" style="ellipse;whiteSpace=wrap;html=1;" parent="1" vertex="1">
          <mxGeometry x="760" width="65" height="30" as="geometry" />
        </mxCell>
        <mxCell id="XXXVESIz7Kh7LqJZONIh-94" value="lname" style="ellipse;whiteSpace=wrap;html=1;" parent="1" vertex="1">
          <mxGeometry x="690" y="10" width="65" height="30" as="geometry" />
        </mxCell>
        <mxCell id="XXXVESIz7Kh7LqJZONIh-96" value="P_M_name" style="ellipse;whiteSpace=wrap;html=1;" parent="1" vertex="1">
          <mxGeometry x="720" y="50" width="65" height="30" as="geometry" />
        </mxCell>
        <mxCell id="XXXVESIz7Kh7LqJZONIh-97" value="email" style="ellipse;whiteSpace=wrap;html=1;" parent="1" vertex="1">
          <mxGeometry x="780" y="80" width="65" height="30" as="geometry" />
        </mxCell>
        <mxCell id="XXXVESIz7Kh7LqJZONIh-101" value="age" style="ellipse;whiteSpace=wrap;html=1;" parent="1" vertex="1">
          <mxGeometry x="567.5" y="20" width="65" height="30" as="geometry" />
        </mxCell>
        <mxCell id="XXXVESIz7Kh7LqJZONIh-105" style="edgeStyle=orthogonalEdgeStyle;rounded=0;orthogonalLoop=1;jettySize=auto;html=1;exitX=0;exitY=0.5;exitDx=0;exitDy=0;entryX=1;entryY=0.5;entryDx=0;entryDy=0;endArrow=none;endFill=0;" parent="1" source="XXXVESIz7Kh7LqJZONIh-104" target="yS_G27v4oWRAwa9dz9_G-19" edge="1">
          <mxGeometry relative="1" as="geometry" />
        </mxCell>
        <mxCell id="XXXVESIz7Kh7LqJZONIh-104" value="Team" style="rounded=0;whiteSpace=wrap;html=1;" parent="1" vertex="1">
          <mxGeometry x="533" y="275" width="120" height="60" as="geometry" />
        </mxCell>
        <mxCell id="XXXVESIz7Kh7LqJZONIh-79" value="P_M_ID (FK)" style="ellipse;whiteSpace=wrap;html=1;" parent="1" vertex="1">
          <mxGeometry x="525" y="405" width="65" height="30" as="geometry" />
        </mxCell>
        <mxCell id="XXXVESIz7Kh7LqJZONIh-111" style="edgeStyle=orthogonalEdgeStyle;rounded=0;orthogonalLoop=1;jettySize=auto;html=1;exitX=1;exitY=0.5;exitDx=0;exitDy=0;endArrow=none;endFill=0;entryX=0.25;entryY=1;entryDx=0;entryDy=0;" parent="1" source="XXXVESIz7Kh7LqJZONIh-110" target="XXXVESIz7Kh7LqJZONIh-4" edge="1">
          <mxGeometry relative="1" as="geometry">
            <Array as="points">
              <mxPoint x="284" y="530" />
              <mxPoint x="335" y="530" />
            </Array>
            <mxPoint x="335" y="470" as="targetPoint" />
          </mxGeometry>
        </mxCell>
        <mxCell id="XXXVESIz7Kh7LqJZONIh-110" value="Team_id&lt;br&gt;(FK)" style="ellipse;whiteSpace=wrap;html=1;" parent="1" vertex="1">
          <mxGeometry x="219" y="540" width="65" height="30" as="geometry" />
        </mxCell>
        <mxCell id="XXXVESIz7Kh7LqJZONIh-113" value="Team_id" style="ellipse;whiteSpace=wrap;html=1;" parent="1" vertex="1">
          <mxGeometry x="487.5" y="205" width="65" height="30" as="geometry" />
        </mxCell>
        <mxCell id="XXXVESIz7Kh7LqJZONIh-116" value="" style="edgeStyle=orthogonalEdgeStyle;rounded=0;orthogonalLoop=1;jettySize=auto;html=1;endArrow=none;endFill=0;" parent="1" source="XXXVESIz7Kh7LqJZONIh-115" target="XXXVESIz7Kh7LqJZONIh-104" edge="1">
          <mxGeometry relative="1" as="geometry">
            <Array as="points">
              <mxPoint x="560" y="270" />
            </Array>
          </mxGeometry>
        </mxCell>
        <mxCell id="XXXVESIz7Kh7LqJZONIh-115" value="Team_name" style="ellipse;whiteSpace=wrap;html=1;" parent="1" vertex="1">
          <mxGeometry x="453" y="240" width="65" height="30" as="geometry" />
        </mxCell>
        <mxCell id="XXXVESIz7Kh7LqJZONIh-118" style="edgeStyle=orthogonalEdgeStyle;rounded=0;orthogonalLoop=1;jettySize=auto;html=1;exitX=0;exitY=0.5;exitDx=0;exitDy=0;endArrow=none;endFill=0;entryX=1;entryY=1;entryDx=0;entryDy=0;" parent="1" source="XXXVESIz7Kh7LqJZONIh-117" target="XXXVESIz7Kh7LqJZONIh-1" edge="1">
          <mxGeometry relative="1" as="geometry">
            <mxPoint x="490" y="650" as="targetPoint" />
            <Array as="points">
              <mxPoint x="490" y="670" />
              <mxPoint x="490" y="655" />
            </Array>
          </mxGeometry>
        </mxCell>
        <mxCell id="XXXVESIz7Kh7LqJZONIh-117" value="P_M_id&lt;br&gt;(FK)" style="ellipse;whiteSpace=wrap;html=1;" parent="1" vertex="1">
          <mxGeometry x="552.5" y="655" width="65" height="30" as="geometry" />
        </mxCell>
        <mxCell id="XXXVESIz7Kh7LqJZONIh-120" value="" style="edgeStyle=orthogonalEdgeStyle;rounded=0;orthogonalLoop=1;jettySize=auto;html=1;endArrow=none;endFill=0;" parent="1" source="XXXVESIz7Kh7LqJZONIh-119" target="XXXVESIz7Kh7LqJZONIh-1" edge="1">
          <mxGeometry relative="1" as="geometry">
            <Array as="points">
              <mxPoint x="370" y="670" />
            </Array>
          </mxGeometry>
        </mxCell>
        <mxCell id="XXXVESIz7Kh7LqJZONIh-119" value="sprint_id&lt;br&gt;(FK)" style="ellipse;whiteSpace=wrap;html=1;" parent="1" vertex="1">
          <mxGeometry x="250" y="670" width="65" height="30" as="geometry" />
        </mxCell>
        <mxCell id="XXXVESIz7Kh7LqJZONIh-122" value="" style="edgeStyle=orthogonalEdgeStyle;rounded=0;orthogonalLoop=1;jettySize=auto;html=1;endArrow=none;endFill=0;entryX=0.158;entryY=1.041;entryDx=0;entryDy=0;entryPerimeter=0;" parent="1" source="XXXVESIz7Kh7LqJZONIh-121" target="XXXVESIz7Kh7LqJZONIh-1" edge="1">
          <mxGeometry relative="1" as="geometry">
            <Array as="points">
              <mxPoint x="384" y="695" />
            </Array>
          </mxGeometry>
        </mxCell>
        <mxCell id="XXXVESIz7Kh7LqJZONIh-121" value="issue_id&lt;br&gt;(FK)" style="ellipse;whiteSpace=wrap;html=1;" parent="1" vertex="1">
          <mxGeometry x="315" y="680" width="65" height="30" as="geometry" />
        </mxCell>
        <mxCell id="XXXVESIz7Kh7LqJZONIh-126" value="issue_id&lt;br style=&quot;border-color: var(--border-color);&quot;&gt;(FK)" style="ellipse;whiteSpace=wrap;html=1;" parent="1" vertex="1">
          <mxGeometry x="637" y="770" width="65" height="30" as="geometry" />
        </mxCell>
        <mxCell id="XXXVESIz7Kh7LqJZONIh-128" value="sprint_id" style="ellipse;whiteSpace=wrap;html=1;" parent="1" vertex="1">
          <mxGeometry x="642.5" y="920" width="65" height="30" as="geometry" />
        </mxCell>
        <mxCell id="XXXVESIz7Kh7LqJZONIh-133" value="issue_id" style="ellipse;whiteSpace=wrap;html=1;" parent="1" vertex="1">
          <mxGeometry x="242.5" y="930" width="65" height="30" as="geometry" />
        </mxCell>
        <mxCell id="XXXVESIz7Kh7LqJZONIh-136" style="edgeStyle=orthogonalEdgeStyle;rounded=0;orthogonalLoop=1;jettySize=auto;html=1;exitX=0.5;exitY=0;exitDx=0;exitDy=0;entryX=1;entryY=0.75;entryDx=0;entryDy=0;endArrow=none;endFill=0;" parent="1" source="XXXVESIz7Kh7LqJZONIh-135" target="XXXVESIz7Kh7LqJZONIh-14" edge="1">
          <mxGeometry relative="1" as="geometry">
            <Array as="points">
              <mxPoint x="356" y="845" />
            </Array>
          </mxGeometry>
        </mxCell>
        <mxCell id="XXXVESIz7Kh7LqJZONIh-135" value="issue_name" style="ellipse;whiteSpace=wrap;html=1;" parent="1" vertex="1">
          <mxGeometry x="323" y="930" width="65" height="30" as="geometry" />
        </mxCell>
        <mxCell id="XXXVESIz7Kh7LqJZONIh-137" value="Type" style="ellipse;whiteSpace=wrap;html=1;" parent="1" vertex="1">
          <mxGeometry x="210" y="960" width="40" height="20" as="geometry" />
        </mxCell>
        <mxCell id="XXXVESIz7Kh7LqJZONIh-144" style="edgeStyle=orthogonalEdgeStyle;rounded=0;orthogonalLoop=1;jettySize=auto;html=1;exitX=0.5;exitY=1;exitDx=0;exitDy=0;entryX=0;entryY=0.25;entryDx=0;entryDy=0;endArrow=none;endFill=0;" parent="1" target="XXXVESIz7Kh7LqJZONIh-19" edge="1">
          <mxGeometry relative="1" as="geometry">
            <Array as="points">
              <mxPoint x="567.5" y="820" />
              <mxPoint x="567.5" y="860" />
            </Array>
            <mxPoint x="570.0000000000001" y="820" as="sourcePoint" />
          </mxGeometry>
        </mxCell>
        <mxCell id="XXXVESIz7Kh7LqJZONIh-142" value="P_M_id&lt;br&gt;(FK)" style="ellipse;whiteSpace=wrap;html=1;" parent="1" vertex="1">
          <mxGeometry x="510" y="800" width="65" height="30" as="geometry" />
        </mxCell>
        <mxCell id="XXXVESIz7Kh7LqJZONIh-146" style="edgeStyle=orthogonalEdgeStyle;rounded=0;orthogonalLoop=1;jettySize=auto;html=1;exitX=1;exitY=0.5;exitDx=0;exitDy=0;entryX=0;entryY=0.75;entryDx=0;entryDy=0;endArrow=none;endFill=0;" parent="1" source="XXXVESIz7Kh7LqJZONIh-145" target="XXXVESIz7Kh7LqJZONIh-1" edge="1">
          <mxGeometry relative="1" as="geometry">
            <Array as="points">
              <mxPoint x="365" y="645" />
            </Array>
          </mxGeometry>
        </mxCell>
        <mxCell id="XXXVESIz7Kh7LqJZONIh-145" value="Report" style="ellipse;whiteSpace=wrap;html=1;" parent="1" vertex="1">
          <mxGeometry x="250" y="630" width="65" height="30" as="geometry" />
        </mxCell>
        <mxCell id="XXXVESIz7Kh7LqJZONIh-150" value="Files" style="ellipse;whiteSpace=wrap;html=1;" parent="1" vertex="1">
          <mxGeometry x="150" y="868" width="65" height="30" as="geometry" />
        </mxCell>
        <mxCell id="NqCZIO3nL4A9ZWYUC3t1-1" value="Version" style="ellipse;whiteSpace=wrap;html=1;" parent="1" vertex="1">
          <mxGeometry x="391" y="680" width="52" height="30" as="geometry" />
        </mxCell>
        <mxCell id="NqCZIO3nL4A9ZWYUC3t1-2" value="Iteration_num" style="ellipse;whiteSpace=wrap;html=1;" parent="1" vertex="1">
          <mxGeometry x="453" y="680" width="80" height="30" as="geometry" />
        </mxCell>
        <mxCell id="NqCZIO3nL4A9ZWYUC3t1-3" value="" style="endArrow=none;html=1;rounded=0;exitX=0.5;exitY=0;exitDx=0;exitDy=0;entryX=0.439;entryY=1.029;entryDx=0;entryDy=0;entryPerimeter=0;" parent="1" source="NqCZIO3nL4A9ZWYUC3t1-1" target="XXXVESIz7Kh7LqJZONIh-1" edge="1">
          <mxGeometry width="50" height="50" relative="1" as="geometry">
            <mxPoint x="480" y="790" as="sourcePoint" />
            <mxPoint x="530" y="740" as="targetPoint" />
          </mxGeometry>
        </mxCell>
        <mxCell id="NqCZIO3nL4A9ZWYUC3t1-4" value="" style="endArrow=none;html=1;rounded=0;exitX=0.248;exitY=0.176;exitDx=0;exitDy=0;exitPerimeter=0;entryX=0.75;entryY=1;entryDx=0;entryDy=0;" parent="1" source="NqCZIO3nL4A9ZWYUC3t1-2" target="XXXVESIz7Kh7LqJZONIh-1" edge="1">
          <mxGeometry width="50" height="50" relative="1" as="geometry">
            <mxPoint x="480" y="790" as="sourcePoint" />
            <mxPoint x="530" y="740" as="targetPoint" />
          </mxGeometry>
        </mxCell>
        <mxCell id="NqCZIO3nL4A9ZWYUC3t1-5" value="" style="endArrow=none;html=1;rounded=0;entryX=0;entryY=0.5;entryDx=0;entryDy=0;exitX=0.687;exitY=1.007;exitDx=0;exitDy=0;exitPerimeter=0;" parent="1" target="yS_G27v4oWRAwa9dz9_G-35" edge="1" source="XXXVESIz7Kh7LqJZONIh-1">
          <mxGeometry width="50" height="50" relative="1" as="geometry">
            <mxPoint x="450" y="700" as="sourcePoint" />
            <mxPoint x="500" y="760" as="targetPoint" />
            <Array as="points">
              <mxPoint x="450" y="755" />
              <mxPoint x="460" y="755" />
            </Array>
          </mxGeometry>
        </mxCell>
        <mxCell id="NqCZIO3nL4A9ZWYUC3t1-8" value="" style="endArrow=none;html=1;rounded=0;exitX=0.5;exitY=0;exitDx=0;exitDy=0;entryX=0.5;entryY=1;entryDx=0;entryDy=0;" parent="1" source="XXXVESIz7Kh7LqJZONIh-133" target="XXXVESIz7Kh7LqJZONIh-14" edge="1">
          <mxGeometry width="50" height="50" relative="1" as="geometry">
            <mxPoint x="290" y="910" as="sourcePoint" />
            <mxPoint x="340" y="860" as="targetPoint" />
          </mxGeometry>
        </mxCell>
        <mxCell id="NqCZIO3nL4A9ZWYUC3t1-9" value="Status" style="ellipse;whiteSpace=wrap;html=1;" parent="1" vertex="1">
          <mxGeometry x="285.5" y="960" width="50" height="20" as="geometry" />
        </mxCell>
        <mxCell id="NqCZIO3nL4A9ZWYUC3t1-10" value="Level_priority" style="ellipse;whiteSpace=wrap;html=1;" parent="1" vertex="1">
          <mxGeometry x="155" y="910" width="80" height="30" as="geometry" />
        </mxCell>
        <mxCell id="NqCZIO3nL4A9ZWYUC3t1-12" value="completion_date" style="ellipse;whiteSpace=wrap;html=1;" parent="1" vertex="1">
          <mxGeometry x="362.5" y="900" width="100" height="20" as="geometry" />
        </mxCell>
        <mxCell id="NqCZIO3nL4A9ZWYUC3t1-13" value="" style="endArrow=none;html=1;rounded=0;exitX=0.5;exitY=0;exitDx=0;exitDy=0;entryX=0.792;entryY=0.987;entryDx=0;entryDy=0;entryPerimeter=0;" parent="1" source="NqCZIO3nL4A9ZWYUC3t1-9" target="XXXVESIz7Kh7LqJZONIh-14" edge="1">
          <mxGeometry width="50" height="50" relative="1" as="geometry">
            <mxPoint x="290" y="910" as="sourcePoint" />
            <mxPoint x="340" y="860" as="targetPoint" />
          </mxGeometry>
        </mxCell>
        <mxCell id="NqCZIO3nL4A9ZWYUC3t1-14" value="" style="endArrow=none;html=1;rounded=0;exitX=0.5;exitY=0;exitDx=0;exitDy=0;entryX=0.25;entryY=1;entryDx=0;entryDy=0;" parent="1" source="XXXVESIz7Kh7LqJZONIh-137" target="XXXVESIz7Kh7LqJZONIh-14" edge="1">
          <mxGeometry width="50" height="50" relative="1" as="geometry">
            <mxPoint x="280" y="920" as="sourcePoint" />
            <mxPoint x="330" y="870" as="targetPoint" />
          </mxGeometry>
        </mxCell>
        <mxCell id="NqCZIO3nL4A9ZWYUC3t1-16" value="" style="endArrow=none;html=1;rounded=0;exitX=0.722;exitY=0.081;exitDx=0;exitDy=0;exitPerimeter=0;entryX=0.088;entryY=1.011;entryDx=0;entryDy=0;entryPerimeter=0;" parent="1" source="NqCZIO3nL4A9ZWYUC3t1-10" target="XXXVESIz7Kh7LqJZONIh-14" edge="1">
          <mxGeometry width="50" height="50" relative="1" as="geometry">
            <mxPoint x="280" y="920" as="sourcePoint" />
            <mxPoint x="330" y="870" as="targetPoint" />
          </mxGeometry>
        </mxCell>
        <mxCell id="NqCZIO3nL4A9ZWYUC3t1-17" value="" style="endArrow=none;html=1;rounded=0;exitX=0.294;exitY=0.083;exitDx=0;exitDy=0;exitPerimeter=0;" parent="1" source="NqCZIO3nL4A9ZWYUC3t1-12" edge="1">
          <mxGeometry width="50" height="50" relative="1" as="geometry">
            <mxPoint x="280" y="920" as="sourcePoint" />
            <mxPoint x="330" y="860" as="targetPoint" />
          </mxGeometry>
        </mxCell>
        <mxCell id="NqCZIO3nL4A9ZWYUC3t1-18" value="" style="endArrow=none;html=1;rounded=0;exitX=0.5;exitY=0;exitDx=0;exitDy=0;" parent="1" source="XXXVESIz7Kh7LqJZONIh-150" edge="1">
          <mxGeometry width="50" height="50" relative="1" as="geometry">
            <mxPoint x="250" y="810" as="sourcePoint" />
            <mxPoint x="220" y="850" as="targetPoint" />
          </mxGeometry>
        </mxCell>
        <mxCell id="NqCZIO3nL4A9ZWYUC3t1-19" value="comments" style="ellipse;whiteSpace=wrap;html=1;" parent="1" vertex="1">
          <mxGeometry x="150" y="770" width="80" height="20" as="geometry" />
        </mxCell>
        <mxCell id="NqCZIO3nL4A9ZWYUC3t1-20" value="" style="endArrow=none;html=1;rounded=0;exitX=0.008;exitY=0.352;exitDx=0;exitDy=0;exitPerimeter=0;entryX=0.673;entryY=1.034;entryDx=0;entryDy=0;entryPerimeter=0;" parent="1" source="XXXVESIz7Kh7LqJZONIh-14" target="NqCZIO3nL4A9ZWYUC3t1-19" edge="1">
          <mxGeometry width="50" height="50" relative="1" as="geometry">
            <mxPoint x="250" y="850" as="sourcePoint" />
            <mxPoint x="300" y="800" as="targetPoint" />
          </mxGeometry>
        </mxCell>
        <mxCell id="NqCZIO3nL4A9ZWYUC3t1-21" value="" style="edgeStyle=orthogonalEdgeStyle;rounded=0;orthogonalLoop=1;jettySize=auto;html=1;exitX=0.5;exitY=1;exitDx=0;exitDy=0;endArrow=none;endFill=0;" parent="1" target="XXXVESIz7Kh7LqJZONIh-26" edge="1">
          <mxGeometry relative="1" as="geometry">
            <Array as="points" />
            <mxPoint x="146.5" y="115" as="sourcePoint" />
            <mxPoint x="261" y="140" as="targetPoint" />
          </mxGeometry>
        </mxCell>
        <mxCell id="XXXVESIz7Kh7LqJZONIh-26" value="admin_id" style="ellipse;whiteSpace=wrap;html=1;" parent="1" vertex="1">
          <mxGeometry x="101.5" y="85" width="65" height="30" as="geometry" />
        </mxCell>
        <mxCell id="NqCZIO3nL4A9ZWYUC3t1-22" value="" style="edgeStyle=orthogonalEdgeStyle;rounded=0;orthogonalLoop=1;jettySize=auto;html=1;exitX=0.5;exitY=1;exitDx=0;exitDy=0;entryX=0.5;entryY=0;entryDx=0;entryDy=0;endArrow=none;endFill=0;" parent="1" target="XXXVESIz7Kh7LqJZONIh-37" edge="1">
          <mxGeometry relative="1" as="geometry">
            <Array as="points">
              <mxPoint x="377" y="120" />
            </Array>
            <mxPoint x="376.5" y="115" as="sourcePoint" />
            <mxPoint x="261" y="140" as="targetPoint" />
          </mxGeometry>
        </mxCell>
        <mxCell id="XXXVESIz7Kh7LqJZONIh-37" value="password" style="ellipse;whiteSpace=wrap;html=1;" parent="1" vertex="1">
          <mxGeometry x="344.5" y="85" width="65" height="30" as="geometry" />
        </mxCell>
        <mxCell id="NqCZIO3nL4A9ZWYUC3t1-26" value="" style="endArrow=none;html=1;rounded=0;entryX=0.5;entryY=1;entryDx=0;entryDy=0;exitX=0.5;exitY=0;exitDx=0;exitDy=0;" parent="1" source="XXXVESIz7Kh7LqJZONIh-6" target="XXXVESIz7Kh7LqJZONIh-90" edge="1">
          <mxGeometry width="50" height="50" relative="1" as="geometry">
            <mxPoint x="560" y="260" as="sourcePoint" />
            <mxPoint x="610" y="210" as="targetPoint" />
          </mxGeometry>
        </mxCell>
        <mxCell id="NqCZIO3nL4A9ZWYUC3t1-27" value="" style="endArrow=none;html=1;rounded=0;entryX=0.664;entryY=1.016;entryDx=0;entryDy=0;entryPerimeter=0;exitX=0;exitY=0;exitDx=0;exitDy=0;" parent="1" source="XXXVESIz7Kh7LqJZONIh-96" target="XXXVESIz7Kh7LqJZONIh-94" edge="1">
          <mxGeometry width="50" height="50" relative="1" as="geometry">
            <mxPoint x="610" y="250" as="sourcePoint" />
            <mxPoint x="660" y="200" as="targetPoint" />
          </mxGeometry>
        </mxCell>
        <mxCell id="NqCZIO3nL4A9ZWYUC3t1-28" value="" style="endArrow=none;html=1;rounded=0;entryX=0.413;entryY=1.019;entryDx=0;entryDy=0;entryPerimeter=0;exitX=0.5;exitY=0;exitDx=0;exitDy=0;" parent="1" source="XXXVESIz7Kh7LqJZONIh-96" target="XXXVESIz7Kh7LqJZONIh-92" edge="1">
          <mxGeometry width="50" height="50" relative="1" as="geometry">
            <mxPoint x="610" y="250" as="sourcePoint" />
            <mxPoint x="660" y="200" as="targetPoint" />
          </mxGeometry>
        </mxCell>
        <mxCell id="NqCZIO3nL4A9ZWYUC3t1-29" value="" style="endArrow=none;html=1;rounded=0;exitX=0.679;exitY=0.027;exitDx=0;exitDy=0;exitPerimeter=0;entryX=0;entryY=1;entryDx=0;entryDy=0;" parent="1" source="XXXVESIz7Kh7LqJZONIh-6" target="XXXVESIz7Kh7LqJZONIh-96" edge="1">
          <mxGeometry width="50" height="50" relative="1" as="geometry">
            <mxPoint x="610" y="250" as="sourcePoint" />
            <mxPoint x="780" y="140" as="targetPoint" />
          </mxGeometry>
        </mxCell>
        <mxCell id="NqCZIO3nL4A9ZWYUC3t1-31" value="" style="endArrow=none;html=1;rounded=0;entryX=0.02;entryY=0.318;entryDx=0;entryDy=0;entryPerimeter=0;exitX=0.25;exitY=0;exitDx=0;exitDy=0;" parent="1" source="XXXVESIz7Kh7LqJZONIh-6" target="XXXVESIz7Kh7LqJZONIh-101" edge="1">
          <mxGeometry width="50" height="50" relative="1" as="geometry">
            <mxPoint x="710" y="330" as="sourcePoint" />
            <mxPoint x="760" y="280" as="targetPoint" />
          </mxGeometry>
        </mxCell>
        <mxCell id="NqCZIO3nL4A9ZWYUC3t1-33" value="" style="endArrow=none;html=1;rounded=0;exitX=0;exitY=0.5;exitDx=0;exitDy=0;entryX=1;entryY=0.25;entryDx=0;entryDy=0;" parent="1" source="XXXVESIz7Kh7LqJZONIh-97" target="XXXVESIz7Kh7LqJZONIh-6" edge="1">
          <mxGeometry width="50" height="50" relative="1" as="geometry">
            <mxPoint x="750" y="270" as="sourcePoint" />
            <mxPoint x="800" y="220" as="targetPoint" />
          </mxGeometry>
        </mxCell>
        <mxCell id="NqCZIO3nL4A9ZWYUC3t1-34" value="" style="endArrow=none;html=1;rounded=0;exitX=0.999;exitY=0.641;exitDx=0;exitDy=0;exitPerimeter=0;" parent="1" source="XXXVESIz7Kh7LqJZONIh-6" target="XXXVESIz7Kh7LqJZONIh-99" edge="1">
          <mxGeometry width="50" height="50" relative="1" as="geometry">
            <mxPoint x="770" y="248" as="sourcePoint" />
            <mxPoint x="800" y="220" as="targetPoint" />
          </mxGeometry>
        </mxCell>
        <mxCell id="XXXVESIz7Kh7LqJZONIh-99" value="password" style="ellipse;whiteSpace=wrap;html=1;" parent="1" vertex="1">
          <mxGeometry x="770" y="120" width="65" height="30" as="geometry" />
        </mxCell>
        <mxCell id="NqCZIO3nL4A9ZWYUC3t1-35" value="" style="endArrow=none;html=1;rounded=0;exitX=1;exitY=0.5;exitDx=0;exitDy=0;entryX=0.12;entryY=1.015;entryDx=0;entryDy=0;entryPerimeter=0;" parent="1" source="XXXVESIz7Kh7LqJZONIh-70" target="XXXVESIz7Kh7LqJZONIh-4" edge="1">
          <mxGeometry width="50" height="50" relative="1" as="geometry">
            <mxPoint x="350" y="440" as="sourcePoint" />
            <mxPoint x="400" y="390" as="targetPoint" />
          </mxGeometry>
        </mxCell>
        <mxCell id="NqCZIO3nL4A9ZWYUC3t1-36" value="" style="endArrow=none;html=1;rounded=0;exitX=1;exitY=0.5;exitDx=0;exitDy=0;entryX=0.014;entryY=1.004;entryDx=0;entryDy=0;entryPerimeter=0;" parent="1" source="XXXVESIz7Kh7LqJZONIh-72" target="XXXVESIz7Kh7LqJZONIh-4" edge="1">
          <mxGeometry width="50" height="50" relative="1" as="geometry">
            <mxPoint x="340" y="450" as="sourcePoint" />
            <mxPoint x="340" y="430" as="targetPoint" />
          </mxGeometry>
        </mxCell>
        <mxCell id="NqCZIO3nL4A9ZWYUC3t1-37" value="" style="endArrow=none;html=1;rounded=0;entryX=0.001;entryY=0.573;entryDx=0;entryDy=0;entryPerimeter=0;" parent="1" target="XXXVESIz7Kh7LqJZONIh-4" edge="1">
          <mxGeometry width="50" height="50" relative="1" as="geometry">
            <mxPoint x="285.5" y="425" as="sourcePoint" />
            <mxPoint x="335.5" y="375" as="targetPoint" />
          </mxGeometry>
        </mxCell>
        <mxCell id="NqCZIO3nL4A9ZWYUC3t1-38" value="" style="endArrow=none;html=1;rounded=0;exitX=0.994;exitY=0.574;exitDx=0;exitDy=0;exitPerimeter=0;entryX=0.006;entryY=0.368;entryDx=0;entryDy=0;entryPerimeter=0;" parent="1" source="XXXVESIz7Kh7LqJZONIh-62" target="XXXVESIz7Kh7LqJZONIh-4" edge="1">
          <mxGeometry width="50" height="50" relative="1" as="geometry">
            <mxPoint x="290" y="430" as="sourcePoint" />
            <mxPoint x="340" y="380" as="targetPoint" />
          </mxGeometry>
        </mxCell>
        <mxCell id="NqCZIO3nL4A9ZWYUC3t1-44" value="" style="endArrow=none;html=1;rounded=0;exitX=0;exitY=0.5;exitDx=0;exitDy=0;entryX=1;entryY=0.75;entryDx=0;entryDy=0;" parent="1" source="XXXVESIz7Kh7LqJZONIh-85" target="XXXVESIz7Kh7LqJZONIh-1" edge="1">
          <mxGeometry width="50" height="50" relative="1" as="geometry">
            <mxPoint x="420" y="580" as="sourcePoint" />
            <mxPoint x="470" y="530" as="targetPoint" />
          </mxGeometry>
        </mxCell>
        <mxCell id="NqCZIO3nL4A9ZWYUC3t1-45" value="" style="endArrow=none;html=1;rounded=0;entryX=0.217;entryY=1.046;entryDx=0;entryDy=0;entryPerimeter=0;exitX=0.5;exitY=0;exitDx=0;exitDy=0;" parent="1" source="XXXVESIz7Kh7LqJZONIh-79" target="XXXVESIz7Kh7LqJZONIh-104" edge="1">
          <mxGeometry width="50" height="50" relative="1" as="geometry">
            <mxPoint x="560" y="400" as="sourcePoint" />
            <mxPoint x="610" y="330" as="targetPoint" />
          </mxGeometry>
        </mxCell>
        <mxCell id="NqCZIO3nL4A9ZWYUC3t1-46" value="" style="endArrow=none;html=1;rounded=0;exitX=0.5;exitY=0;exitDx=0;exitDy=0;entryX=0.619;entryY=1.045;entryDx=0;entryDy=0;entryPerimeter=0;" parent="1" source="XXXVESIz7Kh7LqJZONIh-81" target="XXXVESIz7Kh7LqJZONIh-104" edge="1">
          <mxGeometry width="50" height="50" relative="1" as="geometry">
            <mxPoint x="560" y="380" as="sourcePoint" />
            <mxPoint x="608" y="340" as="targetPoint" />
          </mxGeometry>
        </mxCell>
        <mxCell id="fQ24CwOLesMRKxbrumB--8" style="edgeStyle=orthogonalEdgeStyle;rounded=0;orthogonalLoop=1;jettySize=auto;html=1;exitX=1;exitY=0.75;exitDx=0;exitDy=0;entryX=0.25;entryY=0;entryDx=0;entryDy=0;endArrow=none;endFill=0;" parent="1" source="yS_G27v4oWRAwa9dz9_G-47" target="XXXVESIz7Kh7LqJZONIh-14" edge="1">
          <mxGeometry relative="1" as="geometry" />
        </mxCell>
        <mxCell id="fQ24CwOLesMRKxbrumB--3" value="issue_handler" style="rounded=0;whiteSpace=wrap;html=1;" parent="1" vertex="1">
          <mxGeometry x="10" y="655" width="120" height="60" as="geometry" />
        </mxCell>
        <mxCell id="fQ24CwOLesMRKxbrumB--7" style="edgeStyle=orthogonalEdgeStyle;rounded=0;orthogonalLoop=1;jettySize=auto;html=1;exitX=0.5;exitY=0;exitDx=0;exitDy=0;endArrow=none;endFill=0;" parent="1" source="fQ24CwOLesMRKxbrumB--4" edge="1">
          <mxGeometry relative="1" as="geometry">
            <mxPoint x="70" y="710" as="targetPoint" />
          </mxGeometry>
        </mxCell>
        <mxCell id="fQ24CwOLesMRKxbrumB--4" value="issue_id" style="ellipse;whiteSpace=wrap;html=1;" parent="1" vertex="1">
          <mxGeometry y="750" width="65" height="30" as="geometry" />
        </mxCell>
        <mxCell id="fQ24CwOLesMRKxbrumB--6" style="edgeStyle=orthogonalEdgeStyle;rounded=0;orthogonalLoop=1;jettySize=auto;html=1;exitX=0.5;exitY=0;exitDx=0;exitDy=0;entryX=0.5;entryY=1;entryDx=0;entryDy=0;endArrow=none;endFill=0;" parent="1" source="fQ24CwOLesMRKxbrumB--5" target="fQ24CwOLesMRKxbrumB--3" edge="1">
          <mxGeometry relative="1" as="geometry" />
        </mxCell>
        <mxCell id="fQ24CwOLesMRKxbrumB--5" value="member_id" style="ellipse;whiteSpace=wrap;html=1;" parent="1" vertex="1">
          <mxGeometry x="80" y="750" width="65" height="30" as="geometry" />
        </mxCell>
        <mxCell id="yS_G27v4oWRAwa9dz9_G-1" value="can delete/add" style="shape=rhombus;perimeter=rhombusPerimeter;whiteSpace=wrap;html=1;align=center;" vertex="1" parent="1">
          <mxGeometry x="387.5" y="130" width="100" height="50" as="geometry" />
        </mxCell>
        <mxCell id="yS_G27v4oWRAwa9dz9_G-2" value="" style="endArrow=none;html=1;rounded=0;exitX=1;exitY=0.5;exitDx=0;exitDy=0;entryX=0;entryY=0.5;entryDx=0;entryDy=0;" edge="1" parent="1" source="XXXVESIz7Kh7LqJZONIh-5" target="yS_G27v4oWRAwa9dz9_G-1">
          <mxGeometry relative="1" as="geometry">
            <mxPoint x="450" y="210" as="sourcePoint" />
            <mxPoint x="610" y="210" as="targetPoint" />
          </mxGeometry>
        </mxCell>
        <mxCell id="yS_G27v4oWRAwa9dz9_G-4" value="can delete/add" style="shape=rhombus;perimeter=rhombusPerimeter;whiteSpace=wrap;html=1;align=center;" vertex="1" parent="1">
          <mxGeometry x="105" y="220" width="100" height="50" as="geometry" />
        </mxCell>
        <mxCell id="yS_G27v4oWRAwa9dz9_G-6" value="" style="endArrow=none;html=1;rounded=0;exitX=1;exitY=0.5;exitDx=0;exitDy=0;entryX=0;entryY=0.25;entryDx=0;entryDy=0;" edge="1" parent="1" source="yS_G27v4oWRAwa9dz9_G-1" target="XXXVESIz7Kh7LqJZONIh-6">
          <mxGeometry relative="1" as="geometry">
            <mxPoint x="450" y="260" as="sourcePoint" />
            <mxPoint x="610" y="260" as="targetPoint" />
          </mxGeometry>
        </mxCell>
        <mxCell id="yS_G27v4oWRAwa9dz9_G-7" value="" style="endArrow=none;html=1;rounded=0;exitX=0.5;exitY=1;exitDx=0;exitDy=0;entryX=0.582;entryY=0.024;entryDx=0;entryDy=0;entryPerimeter=0;" edge="1" parent="1" source="yS_G27v4oWRAwa9dz9_G-4" target="XXXVESIz7Kh7LqJZONIh-2">
          <mxGeometry relative="1" as="geometry">
            <mxPoint x="450" y="260" as="sourcePoint" />
            <mxPoint x="610" y="260" as="targetPoint" />
          </mxGeometry>
        </mxCell>
        <mxCell id="yS_G27v4oWRAwa9dz9_G-8" value="" style="endArrow=none;html=1;rounded=0;exitX=0.5;exitY=0;exitDx=0;exitDy=0;entryX=0;entryY=0.5;entryDx=0;entryDy=0;" edge="1" parent="1" source="yS_G27v4oWRAwa9dz9_G-4" target="XXXVESIz7Kh7LqJZONIh-5">
          <mxGeometry relative="1" as="geometry">
            <mxPoint x="450" y="260" as="sourcePoint" />
            <mxPoint x="610" y="260" as="targetPoint" />
          </mxGeometry>
        </mxCell>
        <mxCell id="yS_G27v4oWRAwa9dz9_G-9" value="1" style="text;html=1;align=center;verticalAlign=middle;resizable=0;points=[];autosize=1;strokeColor=none;fillColor=none;" vertex="1" parent="1">
          <mxGeometry x="365" y="158" width="30" height="30" as="geometry" />
        </mxCell>
        <mxCell id="yS_G27v4oWRAwa9dz9_G-10" value="M" style="text;html=1;align=center;verticalAlign=middle;resizable=0;points=[];autosize=1;strokeColor=none;fillColor=none;" vertex="1" parent="1">
          <mxGeometry x="475" y="118" width="30" height="30" as="geometry" />
        </mxCell>
        <mxCell id="yS_G27v4oWRAwa9dz9_G-11" value="1" style="text;html=1;align=center;verticalAlign=middle;resizable=0;points=[];autosize=1;strokeColor=none;fillColor=none;" vertex="1" parent="1">
          <mxGeometry x="115" y="198" width="30" height="30" as="geometry" />
        </mxCell>
        <mxCell id="yS_G27v4oWRAwa9dz9_G-12" value="M" style="text;html=1;align=center;verticalAlign=middle;resizable=0;points=[];autosize=1;strokeColor=none;fillColor=none;" vertex="1" parent="1">
          <mxGeometry x="125" y="268" width="30" height="30" as="geometry" />
        </mxCell>
        <mxCell id="yS_G27v4oWRAwa9dz9_G-13" value="" style="endArrow=none;html=1;rounded=0;exitX=0.628;exitY=1.023;exitDx=0;exitDy=0;exitPerimeter=0;entryX=0.396;entryY=-0.029;entryDx=0;entryDy=0;entryPerimeter=0;" edge="1" parent="1" source="XXXVESIz7Kh7LqJZONIh-113" target="XXXVESIz7Kh7LqJZONIh-104">
          <mxGeometry relative="1" as="geometry">
            <mxPoint x="450" y="300" as="sourcePoint" />
            <mxPoint x="610" y="300" as="targetPoint" />
          </mxGeometry>
        </mxCell>
        <mxCell id="yS_G27v4oWRAwa9dz9_G-15" style="edgeStyle=orthogonalEdgeStyle;rounded=0;orthogonalLoop=1;jettySize=auto;html=1;exitX=0.5;exitY=1;exitDx=0;exitDy=0;strokeColor=none;" edge="1" parent="1" source="yS_G27v4oWRAwa9dz9_G-14" target="XXXVESIz7Kh7LqJZONIh-104">
          <mxGeometry relative="1" as="geometry" />
        </mxCell>
        <mxCell id="yS_G27v4oWRAwa9dz9_G-14" value="has a" style="shape=rhombus;perimeter=rhombusPerimeter;whiteSpace=wrap;html=1;align=center;" vertex="1" parent="1">
          <mxGeometry x="575" y="190" width="70" height="40" as="geometry" />
        </mxCell>
        <mxCell id="yS_G27v4oWRAwa9dz9_G-16" value="" style="endArrow=none;html=1;rounded=0;exitX=0.5;exitY=1;exitDx=0;exitDy=0;entryX=0.645;entryY=0.051;entryDx=0;entryDy=0;entryPerimeter=0;" edge="1" parent="1" source="yS_G27v4oWRAwa9dz9_G-14" target="XXXVESIz7Kh7LqJZONIh-104">
          <mxGeometry relative="1" as="geometry">
            <mxPoint x="370" y="270" as="sourcePoint" />
            <mxPoint x="530" y="270" as="targetPoint" />
          </mxGeometry>
        </mxCell>
        <mxCell id="yS_G27v4oWRAwa9dz9_G-17" value="1" style="text;html=1;align=center;verticalAlign=middle;resizable=0;points=[];autosize=1;strokeColor=none;fillColor=none;" vertex="1" parent="1">
          <mxGeometry x="575" y="168" width="30" height="30" as="geometry" />
        </mxCell>
        <mxCell id="yS_G27v4oWRAwa9dz9_G-18" value="1" style="text;html=1;align=center;verticalAlign=middle;resizable=0;points=[];autosize=1;strokeColor=none;fillColor=none;" vertex="1" parent="1">
          <mxGeometry x="585" y="228" width="30" height="30" as="geometry" />
        </mxCell>
        <mxCell id="yS_G27v4oWRAwa9dz9_G-19" value="has a" style="shape=rhombus;perimeter=rhombusPerimeter;whiteSpace=wrap;html=1;align=center;" vertex="1" parent="1">
          <mxGeometry x="388" y="310" width="87.5" height="40" as="geometry" />
        </mxCell>
        <mxCell id="yS_G27v4oWRAwa9dz9_G-21" value="1" style="text;html=1;align=center;verticalAlign=middle;resizable=0;points=[];autosize=1;strokeColor=none;fillColor=none;" vertex="1" parent="1">
          <mxGeometry x="453" y="330" width="30" height="30" as="geometry" />
        </mxCell>
        <mxCell id="yS_G27v4oWRAwa9dz9_G-22" value="" style="endArrow=none;html=1;rounded=0;exitX=0.5;exitY=0;exitDx=0;exitDy=0;" edge="1" parent="1" source="XXXVESIz7Kh7LqJZONIh-4">
          <mxGeometry relative="1" as="geometry">
            <mxPoint x="370" y="270" as="sourcePoint" />
            <mxPoint x="390" y="330" as="targetPoint" />
            <Array as="points">
              <mxPoint x="365" y="330" />
            </Array>
          </mxGeometry>
        </mxCell>
        <mxCell id="yS_G27v4oWRAwa9dz9_G-23" value="M" style="text;html=1;align=center;verticalAlign=middle;resizable=0;points=[];autosize=1;strokeColor=none;fillColor=none;" vertex="1" parent="1">
          <mxGeometry x="365" y="298" width="30" height="30" as="geometry" />
        </mxCell>
        <mxCell id="yS_G27v4oWRAwa9dz9_G-24" value="has a" style="shape=rhombus;perimeter=rhombusPerimeter;whiteSpace=wrap;html=1;align=center;" vertex="1" parent="1">
          <mxGeometry x="525" y="510" width="70" height="40" as="geometry" />
        </mxCell>
        <mxCell id="yS_G27v4oWRAwa9dz9_G-25" value="1" style="text;html=1;align=center;verticalAlign=middle;resizable=0;points=[];autosize=1;strokeColor=none;fillColor=none;" vertex="1" parent="1">
          <mxGeometry x="495" y="500" width="30" height="30" as="geometry" />
        </mxCell>
        <mxCell id="yS_G27v4oWRAwa9dz9_G-27" value="1" style="text;html=1;align=center;verticalAlign=middle;resizable=0;points=[];autosize=1;strokeColor=none;fillColor=none;" vertex="1" parent="1">
          <mxGeometry x="590.5" y="500" width="30" height="30" as="geometry" />
        </mxCell>
        <mxCell id="yS_G27v4oWRAwa9dz9_G-28" value="" style="endArrow=none;html=1;rounded=0;exitX=0.814;exitY=0.009;exitDx=0;exitDy=0;exitPerimeter=0;entryX=0;entryY=0.5;entryDx=0;entryDy=0;" edge="1" parent="1" source="XXXVESIz7Kh7LqJZONIh-1" target="yS_G27v4oWRAwa9dz9_G-24">
          <mxGeometry relative="1" as="geometry">
            <mxPoint x="490" y="510" as="sourcePoint" />
            <mxPoint x="650" y="510" as="targetPoint" />
            <Array as="points">
              <mxPoint x="463" y="530" />
            </Array>
          </mxGeometry>
        </mxCell>
        <mxCell id="yS_G27v4oWRAwa9dz9_G-29" value="has&amp;nbsp;" style="shape=rhombus;perimeter=rhombusPerimeter;whiteSpace=wrap;html=1;align=center;" vertex="1" parent="1">
          <mxGeometry x="443" y="860" width="50" height="30" as="geometry" />
        </mxCell>
        <mxCell id="yS_G27v4oWRAwa9dz9_G-30" value="" style="endArrow=none;html=1;rounded=0;exitX=0.98;exitY=0.338;exitDx=0;exitDy=0;exitPerimeter=0;entryX=-0.053;entryY=0.516;entryDx=0;entryDy=0;entryPerimeter=0;" edge="1" parent="1" source="XXXVESIz7Kh7LqJZONIh-14" target="yS_G27v4oWRAwa9dz9_G-29">
          <mxGeometry relative="1" as="geometry">
            <mxPoint x="420" y="870" as="sourcePoint" />
            <mxPoint x="580" y="870" as="targetPoint" />
            <Array as="points">
              <mxPoint x="440" y="820" />
            </Array>
          </mxGeometry>
        </mxCell>
        <mxCell id="yS_G27v4oWRAwa9dz9_G-31" value="" style="endArrow=none;html=1;rounded=0;exitX=1;exitY=0.5;exitDx=0;exitDy=0;entryX=0;entryY=0.5;entryDx=0;entryDy=0;" edge="1" parent="1" source="yS_G27v4oWRAwa9dz9_G-29" target="XXXVESIz7Kh7LqJZONIh-19">
          <mxGeometry relative="1" as="geometry">
            <mxPoint x="420" y="870" as="sourcePoint" />
            <mxPoint x="580" y="870" as="targetPoint" />
          </mxGeometry>
        </mxCell>
        <mxCell id="yS_G27v4oWRAwa9dz9_G-32" value="M" style="text;html=1;align=center;verticalAlign=middle;resizable=0;points=[];autosize=1;strokeColor=none;fillColor=none;" vertex="1" parent="1">
          <mxGeometry x="485" y="848" width="30" height="30" as="geometry" />
        </mxCell>
        <mxCell id="yS_G27v4oWRAwa9dz9_G-33" value="N" style="text;html=1;align=center;verticalAlign=middle;resizable=0;points=[];autosize=1;strokeColor=none;fillColor=none;" vertex="1" parent="1">
          <mxGeometry x="415" y="838" width="30" height="30" as="geometry" />
        </mxCell>
        <mxCell id="yS_G27v4oWRAwa9dz9_G-35" value="has&amp;nbsp;" style="shape=rhombus;perimeter=rhombusPerimeter;whiteSpace=wrap;html=1;align=center;" vertex="1" parent="1">
          <mxGeometry x="475.5" y="740" width="50" height="30" as="geometry" />
        </mxCell>
        <mxCell id="yS_G27v4oWRAwa9dz9_G-37" value="" style="endArrow=none;html=1;rounded=0;exitX=1;exitY=0.5;exitDx=0;exitDy=0;entryX=0.167;entryY=-0.007;entryDx=0;entryDy=0;entryPerimeter=0;" edge="1" parent="1" source="yS_G27v4oWRAwa9dz9_G-35" target="XXXVESIz7Kh7LqJZONIh-19">
          <mxGeometry relative="1" as="geometry">
            <mxPoint x="420" y="760" as="sourcePoint" />
            <mxPoint x="620" y="840" as="targetPoint" />
            <Array as="points">
              <mxPoint x="630" y="755" />
            </Array>
          </mxGeometry>
        </mxCell>
        <mxCell id="yS_G27v4oWRAwa9dz9_G-38" value="M" style="text;html=1;align=center;verticalAlign=middle;resizable=0;points=[];autosize=1;strokeColor=none;fillColor=none;" vertex="1" parent="1">
          <mxGeometry x="515" y="730" width="30" height="30" as="geometry" />
        </mxCell>
        <mxCell id="yS_G27v4oWRAwa9dz9_G-39" value="1" style="text;html=1;align=center;verticalAlign=middle;resizable=0;points=[];autosize=1;strokeColor=none;fillColor=none;" vertex="1" parent="1">
          <mxGeometry x="445" y="748" width="30" height="30" as="geometry" />
        </mxCell>
        <mxCell id="yS_G27v4oWRAwa9dz9_G-43" value="" style="edgeStyle=orthogonalEdgeStyle;rounded=0;orthogonalLoop=1;jettySize=auto;html=1;exitX=0.5;exitY=1;exitDx=0;exitDy=0;entryX=0;entryY=0.5;entryDx=0;entryDy=0;endArrow=none;endFill=0;" edge="1" parent="1" source="XXXVESIz7Kh7LqJZONIh-2" target="yS_G27v4oWRAwa9dz9_G-42">
          <mxGeometry relative="1" as="geometry">
            <Array as="points" />
            <mxPoint x="148" y="445" as="sourcePoint" />
            <mxPoint x="673" y="140" as="targetPoint" />
          </mxGeometry>
        </mxCell>
        <mxCell id="yS_G27v4oWRAwa9dz9_G-42" value="deals with" style="shape=rhombus;perimeter=rhombusPerimeter;whiteSpace=wrap;html=1;align=center;" vertex="1" parent="1">
          <mxGeometry x="433" y="1028" width="85" height="50" as="geometry" />
        </mxCell>
        <mxCell id="yS_G27v4oWRAwa9dz9_G-44" value="" style="endArrow=none;html=1;rounded=0;exitX=1;exitY=0.5;exitDx=0;exitDy=0;entryX=0.883;entryY=0.996;entryDx=0;entryDy=0;entryPerimeter=0;" edge="1" parent="1" source="yS_G27v4oWRAwa9dz9_G-42" target="XXXVESIz7Kh7LqJZONIh-6">
          <mxGeometry relative="1" as="geometry">
            <mxPoint x="400" y="810" as="sourcePoint" />
            <mxPoint x="740" y="140" as="targetPoint" />
            <Array as="points">
              <mxPoint x="760" y="1060" />
              <mxPoint x="750" y="690" />
            </Array>
          </mxGeometry>
        </mxCell>
        <mxCell id="yS_G27v4oWRAwa9dz9_G-45" value="1" style="text;html=1;align=center;verticalAlign=middle;resizable=0;points=[];autosize=1;strokeColor=none;fillColor=none;" vertex="1" parent="1">
          <mxGeometry x="385" y="958" width="30" height="30" as="geometry" />
        </mxCell>
        <mxCell id="yS_G27v4oWRAwa9dz9_G-46" value="1" style="text;html=1;align=center;verticalAlign=middle;resizable=0;points=[];autosize=1;strokeColor=none;fillColor=none;" vertex="1" parent="1">
          <mxGeometry x="505" y="998" width="30" height="30" as="geometry" />
        </mxCell>
        <mxCell id="yS_G27v4oWRAwa9dz9_G-48" value="" style="edgeStyle=orthogonalEdgeStyle;rounded=0;orthogonalLoop=1;jettySize=auto;html=1;entryX=0.25;entryY=0;entryDx=0;entryDy=0;endArrow=none;endFill=0;" edge="1" parent="1" target="yS_G27v4oWRAwa9dz9_G-47">
          <mxGeometry relative="1" as="geometry">
            <mxPoint x="130" y="700" as="sourcePoint" />
            <mxPoint x="253" y="800" as="targetPoint" />
            <Array as="points">
              <mxPoint x="160" y="700" />
              <mxPoint x="160" y="707" />
            </Array>
          </mxGeometry>
        </mxCell>
        <mxCell id="yS_G27v4oWRAwa9dz9_G-47" value="handles" style="shape=rhombus;perimeter=rhombusPerimeter;whiteSpace=wrap;html=1;align=center;" vertex="1" parent="1">
          <mxGeometry x="180.5" y="700" width="70" height="40" as="geometry" />
        </mxCell>
        <mxCell id="yS_G27v4oWRAwa9dz9_G-49" value="M" style="text;html=1;align=center;verticalAlign=middle;resizable=0;points=[];autosize=1;strokeColor=none;fillColor=none;" vertex="1" parent="1">
          <mxGeometry x="175" y="678" width="30" height="30" as="geometry" />
        </mxCell>
        <mxCell id="yS_G27v4oWRAwa9dz9_G-50" value="1" style="text;html=1;align=center;verticalAlign=middle;resizable=0;points=[];autosize=1;strokeColor=none;fillColor=none;" vertex="1" parent="1">
          <mxGeometry x="234" y="730" width="30" height="30" as="geometry" />
        </mxCell>
        <mxCell id="yS_G27v4oWRAwa9dz9_G-51" value="is a&amp;nbsp;" style="shape=rhombus;perimeter=rhombusPerimeter;whiteSpace=wrap;html=1;align=center;" vertex="1" parent="1">
          <mxGeometry x="180.5" y="590" width="60" height="30" as="geometry" />
        </mxCell>
        <mxCell id="yS_G27v4oWRAwa9dz9_G-52" value="" style="endArrow=none;html=1;rounded=0;exitX=0.811;exitY=0.041;exitDx=0;exitDy=0;exitPerimeter=0;entryX=0;entryY=0.5;entryDx=0;entryDy=0;" edge="1" parent="1" source="fQ24CwOLesMRKxbrumB--3" target="yS_G27v4oWRAwa9dz9_G-51">
          <mxGeometry relative="1" as="geometry">
            <mxPoint x="210" y="560" as="sourcePoint" />
            <mxPoint x="370" y="560" as="targetPoint" />
            <Array as="points">
              <mxPoint x="107" y="605" />
            </Array>
          </mxGeometry>
        </mxCell>
        <mxCell id="yS_G27v4oWRAwa9dz9_G-54" value="" style="endArrow=none;html=1;rounded=0;exitX=1;exitY=0.5;exitDx=0;exitDy=0;entryX=0.643;entryY=1.005;entryDx=0;entryDy=0;entryPerimeter=0;" edge="1" parent="1" source="yS_G27v4oWRAwa9dz9_G-51" target="XXXVESIz7Kh7LqJZONIh-4">
          <mxGeometry relative="1" as="geometry">
            <mxPoint x="210" y="560" as="sourcePoint" />
            <mxPoint x="370" y="560" as="targetPoint" />
            <Array as="points">
              <mxPoint x="380" y="560" />
            </Array>
          </mxGeometry>
        </mxCell>
        <mxCell id="yS_G27v4oWRAwa9dz9_G-56" value="1" style="text;html=1;align=center;verticalAlign=middle;resizable=0;points=[];autosize=1;strokeColor=none;fillColor=none;" vertex="1" parent="1">
          <mxGeometry x="155" y="608" width="30" height="30" as="geometry" />
        </mxCell>
        <mxCell id="yS_G27v4oWRAwa9dz9_G-57" value="1" style="text;html=1;align=center;verticalAlign=middle;resizable=0;points=[];autosize=1;strokeColor=none;fillColor=none;" vertex="1" parent="1">
          <mxGeometry x="255" y="588" width="30" height="30" as="geometry" />
        </mxCell>
      </root>
    </mxGraphModel>
  </diagram>
</mxfile>
